<svg id="Warstwa_1" data-name="Warstwa 1" xmlns="http://www.w3.org/2000/svg" viewBox="0 0 284.3 90">
  <defs>
    <style>
      .cls-1 {
        fill: #007c38;
      }

      .cls-2 {
        fill: #009e3c;
      }
    </style>
  </defs>
  <g>
    <path class="cls-1" d="M227.29,45.83a2.35,2.35,0,0,1,0-2.66,1.18,1.18,0,0,1,2,0C242.86,61.28,256.14,60.89,266,55.05c7.87-4.67,12.76-13,12.44-21.3-.4-10.25-8.22-19.21-22-25.23-34-14.78-60.63,8.1-84.5,26.51-13.42,10.35-25,19.27-35,20.07C95,58.38,40.71,27.71,40.17,27.39c-7-4-15.47.38-18.49,9.66-2.38,7.3.15,15.82,5.63,19,4.24,2.45,9.19-.16,11-5.8C39.75,45.92,38.26,40.85,35,39c-2.46-1.42-5.33.1-6.39,3.39-.31.94-1.14,1.37-1.86,1A2.16,2.16,0,0,1,26,40.86c1.69-5.18,6.22-7.57,10.1-5.34,4.68,2.72,6.83,10,4.8,16.23-2.46,7.54-9.06,11-14.73,7.76-6.9-4-10.09-14.76-7.09-24C22.79,24.22,32.74,19,41.28,23.94c.53.31,54.19,30.64,95.42,27.4,9.37-.73,20.68-9.46,33.79-19.56C194.84,13,225.14-10.36,260.31,5c20.23,8.81,23.7,21.7,24,28.61.38,9.84-5.16,19.61-14.11,24.92C259.51,64.8,241.88,65.29,227.29,45.83Z"/>
    <path class="cls-2" d="M9.67,43.32c0-3.54-2.17-6.43-4.84-6.43S0,39.78,0,43.32s2.17,6.45,4.83,6.45S9.67,46.89,9.67,43.32Z"/>
  </g>
  <path class="cls-2" d="M228.54,40.61a5.49,5.49,0,0,1-4.27,1.9c-2.84,0-21.33-8.93-30.69-5.42C193.58,37.09,210.45,26.73,228.54,40.61Z"/>
  <path class="cls-2" d="M228.9,42.44a9.8,9.8,0,0,1-2,5.36c-2,2.7-19.83,13.81-24.57,25.1C202.32,72.9,208.74,49.68,228.9,42.44Z"/>
  <path class="cls-2" d="M230.12,43.39a10.08,10.08,0,0,1,1.43,5.69c0,3.79-6.71,28.46-4.07,40.92C227.48,90,219.71,67.51,230.12,43.39Z"/>
</svg>
